<svg width="222" height="193" fill="none" xmlns="http://www.w3.org/2000/svg"><path d="M185.532 123.1H115.9c-1.367 0-2.45-.935-2.45-2.116V82.367c0-1.18 1.083-2.115 2.45-2.115h69.575c1.367 0 2.45.935 2.45 2.115v38.617c.057 1.181-1.083 2.116-2.393 2.116z" fill="#F05B46"/><path d="M180.973 125.069h-69.631c-1.368 0-2.45-.935-2.45-2.116V84.336c0-1.18 1.082-2.115 2.45-2.115h69.574c1.368 0 2.45.934 2.45 2.115v38.617c.057 1.181-1.082 2.116-2.393 2.116z" stroke="#5B5B5B" stroke-width="2" stroke-miterlimit="10"/><path d="M54.19 90.338h43.305M20 103.619h77.495M54.19 116.902h43.305" stroke="#5B5B5B" stroke-width="2" stroke-miterlimit="10" stroke-linecap="round"/><path d="M181.944 82.53l-35.058 21.626h0l-.007.004c-.285.179-.792.204-1.18-.014l-35.167-21.692a1.65 1.65 0 01.81-.208h69.631c.398 0 .728.119.971.284z" fill="#fff" stroke="#5B5B5B" stroke-width="2"/></svg>