<svg width="222" height="192" fill="none" xmlns="http://www.w3.org/2000/svg"><rect x="49.473" y="112.49" width="122.624" height="31.098" rx="1.5" fill="#fff" stroke="#6EACD5" stroke-width="3"/><path fill="#fff" stroke="#6EACD5" stroke-width="3" d="M49.473 90.955h122.624v25.714H49.473z"/><path d="M42 64.037h137.57a1.5 1.5 0 011.5 1.5V93.34H40.5V65.537a1.5 1.5 0 011.5-1.5z" fill="#fff" stroke="#6EACD5" stroke-width="3"/><rect x="71.303" y="74.197" width="93.32" height="8.973" rx="4.487" fill="#E6F1F8"/><path d="M58.845 74.197a5.03 5.03 0 01-.291 1.352c-.457 1.2-1.04 1.25-1.15 2.165-.064.512.055.966-.292 1.293-.054.05-.218.193-.428.184-.301-.008-.493-.327-.52-.377-.264-.445-.091-.94-.091-.94s-.265.235-.502.63c-.219.352-.428 1.132-.42 1.569.019 1.234 1.77 3.122 4.05 3.097 1.742-.017 3.52-1.15 3.867-2.787.255-1.2-.383-2.199-.584-2.492 0 0-.2.713-.52.746-.2.026-.355-.192-.383-.226-.291-.37-.045-.772-.045-1.267 0-.89-.794-1.579-1.45-2.14a6.805 6.805 0 00-1.24-.807z" fill="#FDE6E3"/><path d="M94.338 102.018c-2.406-1.466-3.91.049-7.669-1.221-2.656-.88-3.709-2.248-5.764-1.857-1.052.195-1.804.733-2.305 1.124-.1-4.74-.15-9.478-.25-14.169-.502-1.66-2.206-2.736-3.81-2.491a3.361 3.361 0 00-2.857 2.785v18.125c-2.155-1.954-3.258-2.98-4.511-2.931-1.002.049-2.005.586-2.556 1.368-.3.44-.602 1.124-.451 2.296.3 2.883 2.606 4.837 5.262 8.061a48.155 48.155 0 013.409 4.642c2.105 4.446 6.766 7.475 11.929 7.377 6.666-.146 12.23-5.472 12.48-12.165v-7.182c-.451-1.124-1.253-2.736-2.907-3.762z" fill="#F9F9F9" stroke="#5B5B5B" stroke-width="3" stroke-miterlimit="10"/><path d="M71.563 56.051h-16.52c-.325 0-.582-.289-.582-.654V43.453c0-.365.257-.654.581-.654H71.55c.325 0 .582.289.582.654v11.944c.013.365-.257.654-.568.654z" fill="#6EACD5" stroke="#6EACD5" stroke-miterlimit="10"/><path d="M73.098 41l-8.765 9.561a1.5 1.5 0 01-2.211 0L53.357 41" stroke="#fff"/></svg>